<svg width="14" height="14" viewBox="0 0 14 14" fill="none" xmlns="http://www.w3.org/2000/svg">
<path d="M3.11111 0.466667C3.11111 0.0365556 2.76267 0 2.33333 0C1.90322 0 1.55556 0.0365556 1.55556 0.466667V7H3.11111V0.466667ZM1.55556 13.5333C1.55556 13.9619 1.90322 14 2.33333 14C2.76267 14 3.11111 13.9619 3.11111 13.5333V10.8889H1.55556V13.5333ZM4.19922 7.77778H0.465889C0.0357778 7.77778 0 8.12622 0 8.55556V9.33333C0 9.76344 0.0357778 10.1111 0.465889 10.1111H4.2C4.62778 10.1111 4.66667 9.76344 4.66667 9.33333V8.55556C4.66667 8.12622 4.62778 7.77778 4.19922 7.77778ZM13.5326 8.55556H9.79844C9.36911 8.55556 9.33333 8.904 9.33333 9.33333V10.1111C9.33333 10.5412 9.36911 10.8889 9.79922 10.8889H13.5333C13.9611 10.8889 14 10.5412 14 10.1111V9.33333C14 8.904 13.9611 8.55556 13.5326 8.55556ZM9.33333 4.66667C9.33333 4.23733 9.29445 3.88889 8.86589 3.88889H5.13256C4.70244 3.88889 4.66667 4.23733 4.66667 4.66667V5.44444C4.66667 5.87456 4.70244 6.22222 5.13256 6.22222H8.86667C9.29444 6.22222 9.33333 5.87456 9.33333 5.44444V4.66667ZM7.77778 0.466667C7.77778 0.0365556 7.42933 0 7 0C6.56989 0 6.22222 0.0365556 6.22222 0.466667V3.11111H7.77778V0.466667ZM6.22222 13.5333C6.22222 13.9619 6.56989 14 7 14C7.42933 14 7.77778 13.9619 7.77778 13.5333V7H6.22222V13.5333ZM12.4444 0.466667C12.4444 0.0365556 12.096 0 11.6667 0C11.2366 0 10.8889 0.0365556 10.8889 0.466667V7.77778H12.4444V0.466667ZM10.8889 13.5333C10.8889 13.9619 11.2366 14 11.6667 14C12.096 14 12.4444 13.9619 12.4444 13.5333V11.6667H10.8889V13.5333Z" fill="#586E75"/>
</svg>
