<svg width="136" height="19" viewBox="0 0 136 19" fill="none" xmlns="http://www.w3.org/2000/svg">
<path fill-rule="evenodd" clip-rule="evenodd" d="M39.803 0.142697C39.9552 -0.0475658 40.2596 -0.0475658 40.4499 0.142697L44.0649 3.7577C44.2552 3.94796 44.2552 4.25238 44.0649 4.44264L39.1247 9.39613L44.0649 14.3363C44.2932 14.4885 44.2932 14.7929 44.103 14.9832L40.488 18.5982C40.2977 18.7885 39.9933 18.7885 39.803 18.5982L34.8553 13.677L29.9474 18.5982C29.7571 18.7885 29.4527 18.7885 29.2624 18.5982L25.6474 14.9832C25.4572 14.793 25.4572 14.4885 25.6474 14.2983L30.5505 9.39525L25.6094 4.48069C25.4191 4.29042 25.4191 3.986 25.6094 3.79574L29.2244 0.180741C29.4147 -0.00952179 29.7191 -0.00952179 29.9093 0.180741L34.8372 5.10855L39.803 0.142697ZM66.513 18.5602H62.8249C62.5585 18.5602 62.3302 18.3318 62.3302 18.0655V0.675424C62.3302 0.409056 62.5585 0.18074 62.8249 0.18074H67.962C68.2283 0.18074 68.4566 0.409056 68.4566 0.675424V14.2222H73.5938C73.8601 14.2222 74.0884 14.4505 74.0884 14.7168V18.0655C74.0884 18.3318 73.8601 18.5602 73.5938 18.5602H66.516L66.513 18.5602ZM111.263 18.5602H109.135C108.869 18.5602 108.64 18.3318 108.64 18.0655V0.675424C108.64 0.409056 108.869 0.18074 109.135 0.18074H114.272C114.538 0.18074 114.767 0.409056 114.767 0.675424V14.2222H119.942C120.208 14.2222 120.437 14.4505 120.437 14.7168V18.0655C120.437 18.3318 120.208 18.5602 119.942 18.5602H111.266L111.263 18.5602ZM22.1847 18.5602H17.0476C16.7812 18.5602 16.5529 18.3318 16.5529 18.0655V7.29659C16.5529 7.03022 16.7812 6.8019 17.0476 6.8019H22.1847C22.451 6.8019 22.6794 7.03022 22.6794 7.29659V18.1035C22.6794 18.3318 22.451 18.5602 22.1847 18.5602ZM17.0476 5.27979H22.1847C22.451 5.27979 22.6794 5.05148 22.6794 4.78511V1.43648C22.6794 1.17011 22.451 0.941793 22.1847 0.941793H17.0476C16.7812 0.941793 16.5529 1.17011 16.5529 1.43648V4.78511C16.5529 5.05148 16.7812 5.27979 17.0476 5.27979ZM104.835 18.5602H99.6978C99.4315 18.5602 99.2032 18.3318 99.2032 18.0655V7.29659C99.2032 7.03022 99.4315 6.8019 99.6978 6.8019H104.835C105.101 6.8019 105.33 7.03022 105.33 7.29659V18.1035C105.33 18.3318 105.139 18.5602 104.835 18.5602ZM99.6978 5.27979H104.835C105.139 5.27979 105.33 5.05148 105.33 4.78511V1.43648C105.33 1.17011 105.101 0.941793 104.835 0.941793H99.6978C99.4315 0.941793 99.2032 1.17011 99.2032 1.43648V4.78511C99.2032 5.05148 99.4315 5.27979 99.6978 5.27979ZM58.7532 0.18074H52.056H50.8002H46.9189C46.6525 0.18074 46.4242 0.409056 46.4242 0.675424V14.7168V18.0655C46.4242 18.3318 46.6525 18.5602 46.9189 18.5602L58.7532 18.5602C59.0196 18.5602 59.2479 18.3318 59.2479 18.0655V14.7168C59.2479 14.4505 59.0196 14.2222 58.7532 14.2222H52.5507V11.5204H57.6878C57.9541 11.5204 58.1824 11.3302 58.1824 11.0257V7.67711C58.1824 7.41075 57.9541 7.18243 57.6878 7.18243H52.5507V4.93732H58.7532C59.0196 4.93732 59.2479 4.709 59.2479 4.44263V0.675424C59.2479 0.409056 59.0196 0.18074 58.7532 0.18074ZM5.63179 18.5602H0.494684C0.228316 18.5602 0 18.3318 0 18.0655V0.675424C0 0.409056 0.228316 0.18074 0.494684 0.18074H3.04421H5.63179H10.1981H13.5467C13.5634 0.18074 13.5799 0.181632 13.5962 0.183369C13.8407 0.209428 14.0414 0.425704 14.0414 0.675424L14.0414 4.02406L14.0414 4.02658V11.0257C14.0414 11.3302 13.8511 11.5204 13.5467 11.5204H11.3815L11.3777 11.5204H6.12647V18.0655C6.12647 18.3318 5.89816 18.5602 5.63179 18.5602ZM9.70341 4.51874H6.12647V7.18243H9.70341V4.51874ZM85.352 0.18074H79.7963C79.53 0.18074 79.3017 0.409056 79.3017 0.675424V4.02406C79.3017 4.29042 79.53 4.51874 79.7963 4.51874H84.8573V18.0655C84.8573 18.3318 85.0856 18.5602 85.352 18.5602H90.4891C90.7555 18.5602 90.9838 18.3318 90.9838 18.0655V4.51874H96.0448C96.3112 4.51874 96.5395 4.29042 96.5395 4.02406V0.675424C96.5395 0.409056 96.3112 0.18074 96.0448 0.18074H90.4891H85.352ZM135.505 0.18074H129.912H124.813H119.219C118.952 0.18074 118.724 0.409056 118.724 0.675424V4.02406C118.724 4.29042 118.952 4.51874 119.219 4.51874H124.318V18.0655C124.318 18.3318 124.546 18.5602 124.813 18.5602H129.95C130.216 18.5602 130.444 18.3318 130.444 18.0655V4.51874H135.505C135.772 4.51874 136 4.29042 136 4.02406V0.675424C136 0.409056 135.772 0.18074 135.505 0.18074Z" fill="#03C7D3"/>
</svg>
