<svg width="14" height="14" viewBox="0 0 14 14" fill="none" xmlns="http://www.w3.org/2000/svg">
<path fill-rule="evenodd" clip-rule="evenodd" d="M9.72222 14H13.6111C13.8258 14 14 13.8258 14 13.6107V9.70291C14 9.48825 13.8258 9.31442 13.6111 9.31442C13.3964 9.31442 13.2222 9.48825 13.2222 9.70291V13.2222H9.72222C9.50756 13.2222 9.33333 13.3961 9.33333 13.6107C9.33333 13.8258 9.50756 14 9.72222 14ZM13.2222 4.26486C13.2222 4.47991 13.3964 4.65373 13.6111 4.65373C13.8258 4.65373 14 4.47991 14 4.26486V0.395532C14 0.180483 13.8258 0.00626608 13.6111 0.00626608H9.72222C9.50756 0.00626608 9.33333 0.180483 9.33333 0.395532C9.33333 0.610192 9.50756 0.78402 9.72222 0.78402H13.2222V4.26486ZM0.388889 14H4.27778C4.49244 14 4.66667 13.8257 4.66667 13.6107C4.66667 13.396 4.49244 13.2222 4.27778 13.2222H0.777778V9.74098C0.777778 9.52632 0.603556 9.35249 0.388889 9.35249C0.174222 9.35249 0 9.52632 0 9.74098V13.6107C0 13.8257 0.174222 14 0.388889 14ZM0.777778 0.778143H4.27778C4.49244 0.778143 4.66667 0.603926 4.66667 0.389266C4.66667 0.174606 4.49244 0 4.27778 0H0.388889C0.174222 0 0 0.174606 0 0.389266V4.29709C0 4.51175 0.174222 4.68558 0.388889 4.68558C0.603556 4.68558 0.777778 4.51175 0.777778 4.29709V0.778143ZM4.11101 3.11177C3.55873 3.11177 3.11101 3.55949 3.11101 4.11177V9.88931C3.11101 10.4416 3.55873 10.8893 4.11102 10.8893H9.88879C10.4411 10.8893 10.8888 10.4416 10.8888 9.88931V4.11177C10.8888 3.55949 10.4411 3.11177 9.88879 3.11177H4.11101Z" fill="#586E75"/>
</svg>
